<?xml version="1.0" encoding="utf-8" ?>
<svg xmlns="http://www.w3.org/2000/svg" xmlns:xlink="http://www.w3.org/1999/xlink" width="20" height="24" viewBox="0 0 20 24">
	<rect width="20" height="20" rx="5" ry="5" transform="matrix(1 0 0 1 0 2)" fill="rgb(0, 203, 201)"/>
	<path d="M9.85205 0L9.80948 0C9.24037 0 8.69457 0.226078 8.29216 0.628497C7.88974 1.03092 7.66366 1.57671 7.66366 2.14582L7.66366 4.25758L4.78128 7.88929C4.8494 7.91271 4.92178 7.934 4.99416 7.95315C5.32203 8.04012 5.65974 8.08448 5.99895 8.08514C6.57435 8.08564 7.14276 7.95917 7.66366 7.71473L7.66366 9.60935C7.66366 10.1785 7.88974 10.7243 8.29216 11.1267C8.69457 11.5291 9.24037 11.7552 9.80948 11.7552L9.85205 11.7552C10.134 11.7555 10.4133 11.7002 10.6739 11.5924C10.9345 11.4847 11.1713 11.3267 11.3708 11.1274C11.5702 10.9281 11.7285 10.6915 11.8365 10.431C11.9444 10.1705 12 9.89132 12 9.60935L12 2.14582C12 1.86385 11.9444 1.58464 11.8365 1.32416C11.7285 1.06368 11.5702 0.827029 11.3708 0.627744C11.1713 0.428458 10.9345 0.270443 10.6739 0.16273C10.4133 0.0550181 10.134 -0.000278771 9.85205 0ZM6.85896 4.30658L4.33634 7.49976L4.33634 9.60939C4.33634 9.89119 4.28084 10.1702 4.173 10.4306C4.06516 10.6909 3.9071 10.9275 3.70785 11.1267C3.50859 11.326 3.27203 11.484 3.01169 11.5919C2.75135 11.6997 2.47232 11.7552 2.19052 11.7552L2.14582 11.7552C1.57671 11.7552 1.03091 11.5291 0.628496 11.1267C0.226077 10.7243 0 10.1785 0 9.60939L0 2.14586C0 1.57676 0.226077 1.03096 0.628496 0.62854C1.03091 0.226121 1.57671 4.40484e-05 2.14582 4.40484e-05L2.19052 4.40484e-05C2.4725 4.39096e-05 2.7517 0.0556176 3.01218 0.163588C3.27267 0.271559 3.50931 0.429809 3.7086 0.629292C3.90788 0.828775 4.0659 1.06558 4.17361 1.32617C4.28132 1.58676 4.33662 1.86602 4.33634 2.14799L4.33634 4.04474C4.86002 4.2867 5.43058 4.41026 6.00744 4.40664C6.29413 4.40524 6.57975 4.37168 6.85896 4.30658Z" fill-rule="evenodd" transform="matrix(1 0 0 1 4 6)" fill="rgb(255, 255, 255)"/>
</svg>
