<?xml version="1.0" encoding="utf-8" ?>
<svg xmlns="http://www.w3.org/2000/svg" xmlns:xlink="http://www.w3.org/1999/xlink" width="20" height="24" viewBox="0 0 20 24">
	<rect width="20" height="20" rx="5" ry="5" transform="matrix(1 0 0 1 0 2)" fill="rgb(0, 203, 201)"/>
	<defs>
		<clipPath id="clipPath5335772732">
			<path d="M0 0L14 0L14 14L0 14L0 0Z" fill-rule="nonzero" transform="matrix(1 0 0 1 3 5)"/>
		</clipPath>
	</defs>
	<g clip-path="url(#clipPath5335772732)">
		<path d="M6.125 0C9.50776 0 12.25 2.74226 12.25 6.125C12.25 9.50774 9.50776 12.25 6.125 12.25L1.11661 12.25C0.596934 12.25 0.33667 11.6217 0.704137 11.2542L1.65059 10.3078C0.626734 9.21297 0 7.74218 0 6.125C0 2.74226 2.74224 0 6.125 0ZM3.79167 4.08333C3.46949 4.08333 3.20833 4.34451 3.20833 4.66667L3.20833 4.66754C3.20833 4.9897 3.46949 5.25 3.79167 5.25L8.45833 5.25C8.78051 5.25 9.04167 4.9897 9.04167 4.66754L9.04167 4.66667C9.04167 4.34451 8.78051 4.08333 8.45833 4.08333L3.79167 4.08333ZM3.20833 7.58333C3.20833 7.26117 3.46949 7 3.79167 7L8.45833 7C8.78051 7 9.04167 7.26117 9.04167 7.58333L9.04167 7.58421C9.04167 7.90637 8.78051 8.16667 8.45833 8.16667L3.79167 8.16667C3.46949 8.16667 3.20833 7.90637 3.20833 7.58421L3.20833 7.58333Z" fill-rule="evenodd" transform="matrix(1 0 0 1 3.875 5.875)" fill="rgb(255, 255, 255)"/>
	</g>
</svg>
