<?xml version="1.0" encoding="utf-8" ?>
<svg xmlns="http://www.w3.org/2000/svg" xmlns:xlink="http://www.w3.org/1999/xlink" width="20" height="20" viewBox="0 0 20 20">
	<defs>
		<clipPath id="clipPath1089898286">
			<path d="M0 0L20 0L20 20L0 20L0 0Z" fill-rule="nonzero" transform="matrix(1 0 0 1 0 0)"/>
		</clipPath>
	</defs>
	<g clip-path="url(#clipPath1089898286)">
		<path d="M2.43056 4.58333C2.20148 4.20312 2.08575 3.75519 2.08337 3.23953C2.08096 2.71813 2.19674 2.22514 2.43072 1.76057C2.69856 1.22877 3.08647 0.809807 3.59446 0.503693C4.1517 0.167898 4.80775 0 5.56261 0C6.23001 0 6.85713 0.224149 7.44396 0.672446C7.90089 1.02151 8.32093 1.49995 8.70407 2.10775C8.868 2.3678 9.0222 2.64621 9.16667 2.94299C9.31113 2.64621 9.46533 2.3678 9.62926 2.10775C10.0124 1.49995 10.4324 1.02151 10.8894 0.672446C11.4762 0.224149 12.1033 0 12.7707 0C13.5256 0 14.1816 0.167898 14.7389 0.503693C15.2469 0.809807 15.6348 1.22877 15.9026 1.76057C16.1366 2.22514 16.2524 2.71813 16.25 3.23953C16.2476 3.75519 16.1319 4.20312 15.9028 4.58333L16.25 4.58333C17.4006 4.58333 18.3333 5.51607 18.3333 6.66667L18.3333 8.33333C18.3333 9.34123 17.6176 10.182 16.6667 10.375L16.6667 15.4167C16.6667 15.7554 16.6011 16.0798 16.4699 16.39C16.3433 16.6892 16.1648 16.954 15.9344 17.1844C15.704 17.4148 15.4392 17.5933 15.14 17.7199C14.8298 17.8511 14.5054 17.9167 14.1667 17.9167L4.16667 17.9167C3.82795 17.9167 3.5035 17.8511 3.1933 17.7199C2.8941 17.5933 2.6293 17.4148 2.3989 17.1844C2.1685 16.954 1.99002 16.6892 1.86347 16.39C1.73227 16.0798 1.66667 15.7554 1.66667 15.4167L1.66667 10.375C0.715733 10.182 0 9.34123 0 8.33333L0 6.66667C0 5.51607 0.93274 4.58333 2.08333 4.58333L2.43056 4.58333ZM8.05081 4.58333C8.02376 4.50864 7.99554 4.43347 7.96615 4.35782C7.76684 3.8448 7.54285 3.39104 7.29416 2.99653C7.0176 2.55781 6.73028 2.22459 6.43218 1.99687C6.14403 1.77673 5.85417 1.66667 5.56261 1.66667C5.11665 1.66667 4.74735 1.75485 4.45468 1.93121C4.22134 2.07182 4.04286 2.26484 3.91925 2.51027C3.80525 2.73662 3.74884 2.97714 3.75002 3.23183C3.751 3.44439 3.78815 3.61 3.86146 3.72866C3.9979 3.94951 4.20922 4.14477 4.49539 4.31447C4.65569 4.40952 4.84836 4.49914 5.0734 4.58333L8.05081 4.58333ZM13.2599 4.58333L10.2825 4.58333C10.3096 4.50864 10.3378 4.43347 10.3672 4.35782C10.5665 3.8448 10.7905 3.39104 11.0392 2.99653C11.3157 2.55781 11.6031 2.22459 11.9011 1.99687C12.1893 1.77673 12.4792 1.66667 12.7707 1.66667C13.2167 1.66667 13.586 1.75485 13.8786 1.93121C14.112 2.07182 14.2905 2.26484 14.4141 2.51027C14.5281 2.73662 14.5845 2.97714 14.5833 3.23183C14.5823 3.44439 14.5452 3.61 14.4719 3.72866C14.3354 3.94951 14.1241 4.14477 13.8379 4.31447C13.6776 4.40952 13.485 4.49914 13.2599 4.58333ZM2.08333 6.25L8.33333 6.25L8.33333 8.75L2.08333 8.75C1.85321 8.75 1.66667 8.56345 1.66667 8.33333L1.66667 6.66667C1.66667 6.43655 1.85321 6.25 2.08333 6.25ZM10 6.25L10 8.75L16.25 8.75C16.4801 8.75 16.6667 8.56345 16.6667 8.33333L16.6667 6.66667C16.6667 6.43655 16.4801 6.25 16.25 6.25L10 6.25ZM3.33333 10.4167L8.33333 10.4167L8.33333 16.25L4.16667 16.25C3.93655 16.25 3.74013 16.1686 3.57741 16.0059C3.41469 15.8432 3.33333 15.6468 3.33333 15.4167L3.33333 10.4167ZM10 10.4167L10 16.25L14.1667 16.25C14.3968 16.25 14.5932 16.1686 14.7559 16.0059C14.9186 15.8432 15 15.6468 15 15.4167L15 10.4167L10 10.4167Z" fill-rule="evenodd" transform="matrix(1 0 0 1 0.833333 0.833333)" fill="rgb(255, 255, 255)"/>
	</g>
</svg>
