<?xml version="1.0" encoding="utf-8" ?>
<svg xmlns="http://www.w3.org/2000/svg" xmlns:xlink="http://www.w3.org/1999/xlink" width="20" height="20" viewBox="0 0 20 20">
	<defs>
		<clipPath id="clipPath3166534158">
			<path d="M0 0L20 0L20 20L0 20L0 0Z" fill-rule="nonzero" transform="matrix(1 0 0 1 0 0)"/>
		</clipPath>
	</defs>
	<g clip-path="url(#clipPath3166534158)">
		<path d="M8.75 0C13.5825 0 17.5 3.91752 17.5 8.75C17.5 13.5825 13.5825 17.5 8.75 17.5L1.59515 17.5C0.852763 17.5 0.480957 16.6024 1.00591 16.0774L2.35799 14.7254C0.895335 13.1614 0 11.0603 0 8.75C0 3.91752 3.91749 0 8.75 0ZM5.41667 5.83333C4.95641 5.83333 4.58333 6.20644 4.58333 6.66667L4.58333 6.66791C4.58333 7.12814 4.95641 7.5 5.41667 7.5L12.0833 7.5C12.5436 7.5 12.9167 7.12814 12.9167 6.66791L12.9167 6.66667C12.9167 6.20644 12.5436 5.83333 12.0833 5.83333L5.41667 5.83333ZM4.58333 10.8333C4.58333 10.3731 4.95641 10 5.41667 10L12.0833 10C12.5436 10 12.9167 10.3731 12.9167 10.8333L12.9167 10.8346C12.9167 11.2948 12.5436 11.6667 12.0833 11.6667L5.41667 11.6667C4.95641 11.6667 4.58333 11.2948 4.58333 10.8346L4.58333 10.8333Z" fill-rule="evenodd" transform="matrix(1 0 0 1 1.25 1.25)" fill="rgb(255, 255, 255)"/>
	</g>
</svg>
