<?xml version="1.0" encoding="utf-8" ?>
<svg xmlns="http://www.w3.org/2000/svg" xmlns:xlink="http://www.w3.org/1999/xlink" width="20" height="20" viewBox="0 0 20 20">
	<defs>
		<clipPath id="clipPath5737599874">
			<path d="M0 0L20 0L20 20L0 20L0 0Z" fill-rule="nonzero" transform="matrix(1 0 0 1 0 0)"/>
		</clipPath>
	</defs>
	<g clip-path="url(#clipPath5737599874)">
		<path d="M3.11745 0.245162C2.96982 -0.0817206 2.50562 -0.0817206 2.35799 0.245162L1.89499 1.2703C1.76973 1.54762 1.54762 1.76973 1.2703 1.89499L0.245162 2.35799C-0.0817204 2.50562 -0.0817206 2.96982 0.245162 3.11745L1.2703 3.58045C1.54762 3.7057 1.76973 3.92782 1.89499 4.20514L2.35799 5.23028C2.50562 5.55716 2.96982 5.55716 3.11745 5.23028L3.58045 4.20514C3.7057 3.92781 3.92782 3.7057 4.20514 3.58045L5.23028 3.11745C5.55716 2.96982 5.55716 2.50562 5.23028 2.35799L4.20514 1.89499C3.92781 1.76973 3.7057 1.54762 3.58045 1.2703L3.11745 0.245162ZM8.03839 1.50632C8.40748 0.689118 9.56796 0.689118 9.93705 1.50632L11.4511 4.85855C11.7851 5.59807 12.3774 6.19036 13.1169 6.52437L16.4691 8.03839C17.2863 8.40748 17.2863 9.56796 16.4691 9.93705L12.9735 11.5159C12.3264 11.8081 11.8081 12.3264 11.5159 12.9735L9.93705 16.4691C9.56796 17.2863 8.40748 17.2863 8.03839 16.4691L6.52437 13.1169C6.19036 12.3774 5.59807 11.7851 4.85854 11.4511L1.50632 9.93705C0.689117 9.56796 0.689118 8.40748 1.50632 8.03839L4.85854 6.52437C5.59807 6.19036 6.19036 5.59807 6.52437 4.85854L8.03839 1.50632ZM15.6175 12.7452C15.4698 12.4183 15.0056 12.4183 14.858 12.7452L14.395 13.7703C14.2697 14.0476 14.0476 14.2697 13.7703 14.395L12.7452 14.858C12.4183 15.0056 12.4183 15.4698 12.7452 15.6175L13.7703 16.0805C14.0476 16.2057 14.2697 16.4278 14.395 16.7051L14.858 17.7303C15.0056 18.0572 15.4698 18.0572 15.6175 17.7303L16.0805 16.7051C16.2057 16.4278 16.4278 16.2057 16.7051 16.0805L17.7303 15.6175C18.0572 15.4698 18.0572 15.0056 17.7303 14.858L16.7051 14.395C16.4278 14.2697 16.2057 14.0476 16.0805 13.7703L15.6175 12.7452Z" fill-rule="evenodd" transform="matrix(1 0 0 1 1.01228 1.01228)" fill="rgb(255, 255, 255)"/>
	</g>
</svg>
