<?xml version="1.0" encoding="utf-8" ?>
<svg xmlns="http://www.w3.org/2000/svg" xmlns:xlink="http://www.w3.org/1999/xlink" width="28" height="28" viewBox="0 0 28 28">
	<path d="M14 0C6.26801 0 0 6.26801 0 14L0 14.021C0 21.753 6.24701 28 13.979 28L14 28C21.732 28 28 21.753 28 14.021L28 14C28 6.26801 21.753 0 14.021 0L14 0Z" fill-rule="nonzero" transform="matrix(1 0 0 1 0 0)" fill="rgb(10, 27, 51)" fill-opacity="0.06"/>
	<defs>
		<clipPath id="clipPath2281341194">
			<path d="M0 0L21 0L21 21L0 21L0 0Z" fill-rule="nonzero" transform="matrix(1 0 0 1 3.5 3.5)"/>
		</clipPath>
	</defs>
	<g clip-path="url(#clipPath2281341194)">
		<path d="M1.49372 0.256282C1.15201 -0.0854272 0.59799 -0.0854272 0.256282 0.256282C-0.0854272 0.59799 -0.0854272 1.15201 0.256282 1.49372L4.01256 5.25L0.256282 9.00628C-0.0854272 9.34799 -0.0854272 9.90201 0.256282 10.2437C0.59799 10.5854 1.15201 10.5854 1.49372 10.2437L5.25 6.48744L9.00628 10.2437C9.34799 10.5854 9.90201 10.5854 10.2437 10.2437C10.5854 9.90201 10.5854 9.34799 10.2437 9.00628L6.48744 5.25L10.2437 1.49372C10.5854 1.15201 10.5854 0.59799 10.2437 0.256282C9.90201 -0.0854272 9.34799 -0.0854272 9.00628 0.256282L5.25 4.01256L1.49372 0.256282Z" fill-rule="evenodd" transform="matrix(1 0 0 1 8.75 8.75)" fill="rgb(135, 143, 155)"/>
	</g>
</svg>
