<?xml version="1.0" encoding="utf-8" ?>
<svg xmlns="http://www.w3.org/2000/svg" xmlns:xlink="http://www.w3.org/1999/xlink" width="20" height="24" viewBox="0 0 20 24">
	<rect width="20" height="20" rx="5" ry="5" transform="matrix(1 0 0 1 0 2)" fill="rgb(242, 147, 15)"/>
	<defs>
		<clipPath id="clipPath4327284527">
			<path d="M0 0L12 0L12 12L0 12L0 0Z" fill-rule="nonzero" transform="matrix(1 0 0 1 4 6)"/>
		</clipPath>
	</defs>
	<g clip-path="url(#clipPath4327284527)">
		<path d="M3 0C2.69885 0 2.45459 0.244263 2.45459 0.54541L2.45459 0.79541L1.5 0.79541C0.671631 0.79541 0 1.46704 0 2.29541L0 3.29541L10.5 3.29541L10.5 2.29541C10.5 1.46704 9.82837 0.79541 9 0.79541L8.04553 0.79541L8.04553 0.54541C8.04553 0.244263 7.80127 0 7.5 0C7.19885 0 6.95459 0.244263 6.95459 0.54541L6.95459 0.79541L3.54553 0.79541L3.54553 0.54541C3.54553 0.244263 3.30127 0 3 0ZM0 8.79541L0 4.04541L10.5 4.04541L10.5 8.79541C10.5 9.62378 9.82837 10.2954 9 10.2954L1.5 10.2954C0.671631 10.2954 0 9.62378 0 8.79541ZM7.18179 5.75259C6.98653 5.55733 6.66995 5.55733 6.47468 5.75259L5.06047 7.16681L4.35336 6.4597C4.1581 6.26444 3.84152 6.26444 3.64626 6.4597C3.451 6.65496 3.451 6.97155 3.64626 7.16681L4.53014 8.05069C4.60191 8.12246 4.6847 8.17737 4.7785 8.21541C4.86884 8.25204 4.96283 8.27036 5.06047 8.27036Q5.20693 8.27036 5.34244 8.21541C5.43624 8.17737 5.51903 8.12246 5.5908 8.05069L7.18179 6.4597C7.37705 6.26444 7.37705 5.94785 7.18179 5.75259Z" fill-rule="evenodd" transform="matrix(1 0 0 1 4.75 6.70459)" fill="rgb(255, 255, 255)"/>
	</g>
</svg>
