<?xml version="1.0" encoding="utf-8" ?>
<svg xmlns="http://www.w3.org/2000/svg" xmlns:xlink="http://www.w3.org/1999/xlink" width="20" height="24" viewBox="0 0 20 24">
	<rect width="20" height="20" rx="5" ry="5" transform="matrix(1 0 0 1 0 2)" fill="rgb(28, 100, 242)"/>
	<defs>
		<clipPath id="clipPath1508270032">
			<path d="M0 0L14 0L14 14L0 14L0 0Z" fill-rule="nonzero" transform="matrix(1 0 0 1 3 5)"/>
		</clipPath>
	</defs>
	<g clip-path="url(#clipPath1508270032)">
		<path d="M11.6667 0L2.33333 0C2.22866 0 2.1311 0.0262044 2.04053 0.0787557C1.95002 0.131307 1.87881 0.203084 1.82683 0.293945L1.2435 1.31478C1.21836 1.35878 1.19921 1.40535 1.18618 1.45449C1.17315 1.50348 1.16667 1.55347 1.16667 1.60417C1.16667 1.76524 1.22363 1.90281 1.33749 2.0166C1.45143 2.13053 1.58893 2.1875 1.75 2.1875L8.73284 2.1875L7.23085 4.65499C7.20308 4.7007 7.18194 4.74927 7.16748 4.80082C7.15302 4.85238 7.14583 4.90478 7.14583 4.95833C7.14583 5.1194 7.2028 5.25698 7.31666 5.37077C7.43059 5.4847 7.56809 5.54167 7.72917 5.54167L9.03789 5.54167C9.14029 5.54167 9.23599 5.51646 9.32514 5.46604C9.41422 5.41563 9.48515 5.34656 9.53791 5.25883L12.1667 0.88383C12.194 0.838399 12.2146 0.790263 12.2288 0.739278C12.243 0.688293 12.25 0.636312 12.25 0.583333C12.25 0.422262 12.193 0.284688 12.0792 0.170898C11.9652 0.0569661 11.8277 0 11.6667 0ZM5.6875 10.5L0.583333 10.5C0.422262 10.5 0.28476 10.443 0.170827 10.3291C0.0569661 10.2153 0 10.0777 0 9.91667C0 9.86369 0.00704956 9.81185 0.0212199 9.76072C0.0353902 9.70974 0.0560404 9.6616 0.083313 9.61617L2.71209 5.24117C2.76485 5.15344 2.83577 5.08437 2.92486 5.03396C3.01401 4.98354 3.10971 4.95833 3.21211 4.95833L4.375 4.95833C4.53607 4.95833 4.67357 5.0153 4.78751 5.12923C4.90137 5.24302 4.95833 5.38059 4.95833 5.54167C4.95833 5.59023 4.95235 5.63794 4.94046 5.68494C4.92857 5.73193 4.91105 5.77679 4.88791 5.81952L3.45856 8.45833L6.27083 8.45833C6.4319 8.45833 6.56941 8.5153 6.68334 8.62923C6.7972 8.74302 6.85417 8.88059 6.85417 9.04167C6.85417 9.0992 6.84584 9.1556 6.8291 9.21071C6.81244 9.26583 6.78816 9.31738 6.75618 9.36523L6.17285 10.2402C6.11873 10.3214 6.04874 10.3849 5.96272 10.4309C5.87677 10.4769 5.78505 10.5 5.6875 10.5ZM9.0752 7.32528C8.79272 7.60769 8.45584 7.78898 8.06448 7.86888C7.91566 7.89935 7.79567 7.97512 7.70446 8.09603C7.62371 8.20327 7.58333 8.32404 7.58333 8.45833C7.58333 8.59263 7.62371 8.7134 7.70446 8.82064C7.79567 8.94155 7.91566 9.01731 8.06448 9.04779C8.45584 9.12769 8.79272 9.30898 9.0752 9.59139C9.35769 9.87394 9.53891 10.2108 9.61888 10.6023C9.64935 10.7509 9.72505 10.871 9.8461 10.9623C9.95327 11.043 10.074 11.0833 10.2083 11.0833C10.3427 11.0833 10.4634 11.043 10.5706 10.9623C10.6916 10.871 10.7673 10.7509 10.7978 10.6023C10.8778 10.2108 11.059 9.87394 11.3415 9.59139C11.6239 9.30898 11.9608 9.12769 12.3522 9.04779C12.501 9.01731 12.621 8.94155 12.7122 8.82064C12.793 8.7134 12.8333 8.59263 12.8333 8.45833C12.8333 8.32404 12.793 8.20327 12.7122 8.09603C12.621 7.97512 12.501 7.89935 12.3522 7.86888C11.9608 7.78898 11.6239 7.60769 11.3415 7.32528C11.059 7.04272 10.8778 6.70591 10.7978 6.31441C10.7673 6.16573 10.6916 6.04567 10.5706 5.95439C10.4634 5.87364 10.3427 5.83333 10.2083 5.83333C10.074 5.83333 9.95327 5.87364 9.8461 5.95439C9.72505 6.04567 9.64935 6.16573 9.61888 6.31441C9.53891 6.70591 9.35769 7.04272 9.0752 7.32528Z" fill-rule="evenodd" transform="matrix(1 0 0 1 3.58333 6.75)" fill="rgb(255, 255, 255)"/>
	</g>
</svg>
